# xmcd
#
# Track frame offsets:
#	150
#	12460
#	22773
#	36742
#	52258
#	61587
#	73634
#	82475
#	95835
#	106382
#	117295
#	128883
#	141830
#	153427
#	164386
#	174943
#	188668
#	200040
#	210447
#	221144
#	232816
#	244882
#	255617
#	264824
#	277006
#
# Disc length: 3851 seconds
# Revision: 0
# Processed by: cddbd v1.5.2PL0 Copyright (c) Steve Scherf et al.
# Submitted via: dBpowerAMP V12.0
#
DISCID=730f0919
DTITLE=Various Artist - Gonna have a Really Soulful Christmas Disc 2
DYEAR=1900
DGENRE=
TTITLE0=Titus Turner - Christmas Morning
TTITLE1=Marvin and Johnny - It's Christmas Time
TTITLE2=Hank Ballard and The Midnighters - Christmas Time For Everybody But Me
TTITLE3=The Crystals - Santa Claus is Coming to Town
TTITLE4=Jackie Wilson - Joy To the World
TTITLE5=B.B. King - Christmas Celebration
TTITLE6=Jimmy Butler - Trim Your Tree
TTITLE7=Selena Jones (as Joan Shaw) - I Want a Man for Christmas
TTITLE8=The Cadillacs - Rudolph the Rednosed Reindeer
TTITLE9=The Moonglows - Hey Santa Claus
TTITLE10=Marvin Gaye - The Christmas Song
TTITLE11=Tommy Lee and The Orbits - Jingle Rock
TTITLE12=Oscar McLollie and His Honey Jumpers - Dig That Crazy Santa Claus
TTITLE13=Darlene Love - Marshmallow World
TTITLE14=Smokey Robinson and The Miracles - Winter Wonderland
TTITLE15=Harry Belafonte - Mary's Boy Child
TTITLE16=The Voices - Santa Claus Baby
TTITLE17=Sheb Wooley - Santa Claus meets the Purple People Eater
TTITLE18=Sandy Baron - Swingin' Santa
TTITLE19=Jimmy Boyd with Mitch Miller and his Orch. - I Saw Mommy do the Mambo (With You Know Who)
TTITLE20=The Drifters - White Christmas
TTITLE21=Frankie Lymon - It's Christmas Time Once Again
TTITLE22=Marguerite Trina - The Rocking Tree
TTITLE23=Jo-Ann Campbell - Happy New Year Baby
TTITLE24=The Enchanters - Mambo Santa Mambo
EXTD=
EXTT0=
EXTT1=
EXTT2=
EXTT3=
EXTT4=
EXTT5=
EXTT6=
EXTT7=
EXTT8=
EXTT9=
EXTT10=
EXTT11=
EXTT12=
EXTT13=
EXTT14=
EXTT15=
EXTT16=
EXTT17=
EXTT18=
EXTT19=
EXTT20=
EXTT21=
EXTT22=
EXTT23=
EXTT24=
PLAYORDER=
